<?xml version="1.0" encoding="utf-8"?>
<!-- Generator: Adobe Illustrator 16.0.3, SVG Export Plug-In . SVG Version: 6.00 Build 0)  -->
<!DOCTYPE svg PUBLIC "-//W3C//DTD SVG 1.1//EN" "http://www.w3.org/Graphics/SVG/1.1/DTD/svg11.dtd">
<svg version="1.1" id="Capa_1" xmlns="http://www.w3.org/2000/svg" xmlns:xlink="http://www.w3.org/1999/xlink" x="0px" y="0px"
	 width="1080px" height="1020px" viewBox="0 0 1080 1020" enable-background="new 0 0 1080 1020" xml:space="preserve">
<path fill="#FFFFFF" stroke="#000000" stroke-miterlimit="10" d="M125.625,262.969h828.75c17.605,0,31.875-14.27,31.875-31.875
	v-79.688c0-17.605-14.27-31.875-31.875-31.875h-828.75c-17.605,0-31.875,14.27-31.875,31.875v79.688
	C93.75,248.699,108.02,262.969,125.625,262.969z M125.625,581.719h828.75c17.605,0,31.875-14.271,31.875-31.875v-79.688
	c0-17.605-14.27-31.875-31.875-31.875h-828.75c-17.605,0-31.875,14.27-31.875,31.875v79.688
	C93.75,567.448,108.02,581.719,125.625,581.719z M125.625,900.469h828.75c17.605,0,31.875-14.271,31.875-31.875v-79.688
	c0-17.604-14.27-31.875-31.875-31.875h-828.75c-17.605,0-31.875,14.271-31.875,31.875v79.688
	C93.75,886.198,108.02,900.469,125.625,900.469z"/>
</svg>
