<?xml version="1.0" encoding="utf-8"?>
<!-- Generator: Adobe Illustrator 16.0.3, SVG Export Plug-In . SVG Version: 6.00 Build 0)  -->
<!DOCTYPE svg PUBLIC "-//W3C//DTD SVG 1.1//EN" "http://www.w3.org/Graphics/SVG/1.1/DTD/svg11.dtd">
<svg version="1.1" id="Capa_1" xmlns="http://www.w3.org/2000/svg" xmlns:xlink="http://www.w3.org/1999/xlink" x="0px" y="0px"
	 width="1080px" height="1020px" viewBox="0 0 1080 1020" enable-background="new 0 0 1080 1020" xml:space="preserve">
<path fill="#FFFFFF" stroke="#000000" stroke-miterlimit="10" d="M672.919,510l199.358-199.358
	c24.464-24.464,24.464-64.128,0-88.612l-44.307-44.306c-24.464-24.464-64.129-24.464-88.612,0L540,377.081L340.642,177.723
	c-24.464-24.464-64.128-24.464-88.612,0l-44.306,44.306c-24.464,24.464-24.464,64.128,0,88.612L407.081,510L207.723,709.358
	c-24.464,24.464-24.464,64.128,0,88.612l44.306,44.307c24.464,24.464,64.148,24.464,88.612,0L540,642.919l199.358,199.358
	c24.464,24.464,64.148,24.464,88.612,0l44.307-44.307c24.464-24.464,24.464-64.129,0-88.612L672.919,510z"/>
</svg>
